<svg xmlns="http://www.w3.org/2000/svg" xmlns:xlink="http://www.w3.org/1999/xlink" contentStyleType="text/css" height="442px" preserveAspectRatio="none" style="width:1718px;height:442px;background:#FFFFFF;" version="1.1" viewBox="0 0 1718 442" width="1718px" zoomAndPan="magnify"><defs/><g><!--class DerefMut<Target=[T]>--><g id="elem_DerefMut&lt;Target=[T]&gt;"><rect codeLine="3" fill="#F1F1F1" height="80.9766" id="DerefMut&lt;Target=[T]&gt;" rx="2.5" ry="2.5" style="stroke:#181818;stroke-width:0.5;" width="260.9512" x="7" y="196.47"/><ellipse cx="54.0415" cy="212.47" fill="#B4A7E5" rx="11" ry="11" style="stroke:#181818;stroke-width:1.0;"/><path d="M49.9692,208.2351 L49.9692,206.0769 L57.3486,206.0769 L57.3486,208.2351 L54.8833,208.2351 L54.8833,216.3118 L57.3486,216.3118 L57.3486,218.47 L49.9692,218.47 L49.9692,216.3118 L52.4346,216.3118 L52.4346,208.2351 Z " fill="#000000"/><text fill="#000000" font-family="sans-serif" font-size="14" font-style="italic" lengthAdjust="spacing" textLength="158.3682" x="74.5415" y="217.761">DerefMut&lt;Target=[T]&gt;</text><line style="stroke:#181818;stroke-width:0.5;" x1="8" x2="266.9512" y1="228.47" y2="228.47"/><ellipse cx="18" cy="242.2141" fill="none" rx="3" ry="3" style="stroke:#038048;stroke-width:1.0;"/><text fill="#000000" font-family="sans-serif" font-size="14" lengthAdjust="spacing" textLength="82.0244" x="27" y="246.0052">Target = [T]</text><line style="stroke:#181818;stroke-width:0.5;" x1="8" x2="266.9512" y1="252.9583" y2="252.9583"/><ellipse cx="18" cy="266.7024" fill="#84BE84" rx="3" ry="3" style="stroke:#038048;stroke-width:1.0;"/><text fill="#000000" font-family="sans-serif" font-size="14" font-weight="bold" lengthAdjust="spacing" textLength="73.2949" x="27" y="270.4934">deref_mut</text><text fill="#000000" font-family="sans-serif" font-size="14" lengthAdjust="spacing" textLength="161.6563" x="100.2949" y="270.4934">(&amp;mut self) -&gt; &amp;mut [T]</text></g><!--class Deref<Target=[T]>--><g id="elem_Deref&lt;Target=[T]&gt;"><rect codeLine="8" fill="#F1F1F1" height="80.9766" id="Deref&lt;Target=[T]&gt;" rx="2.5" ry="2.5" style="stroke:#181818;stroke-width:0.5;" width="167.0869" x="302.93" y="196.47"/><ellipse cx="319.146" cy="212.47" fill="#B4A7E5" rx="11" ry="11" style="stroke:#181818;stroke-width:1.0;"/><path d="M315.0737,208.2351 L315.0737,206.0769 L322.4531,206.0769 L322.4531,208.2351 L319.9878,208.2351 L319.9878,216.3118 L322.4531,216.3118 L322.4531,218.47 L315.0737,218.47 L315.0737,216.3118 L317.539,216.3118 L317.539,208.2351 Z " fill="#000000"/><text fill="#000000" font-family="sans-serif" font-size="14" font-style="italic" lengthAdjust="spacing" textLength="132.3848" x="333.4162" y="217.761">Deref&lt;Target=[T]&gt;</text><line style="stroke:#181818;stroke-width:0.5;" x1="303.93" x2="469.0169" y1="228.47" y2="228.47"/><ellipse cx="313.93" cy="242.2141" fill="none" rx="3" ry="3" style="stroke:#038048;stroke-width:1.0;"/><text fill="#000000" font-family="sans-serif" font-size="14" lengthAdjust="spacing" textLength="86.4541" x="322.93" y="246.0052">Target = [T];</text><line style="stroke:#181818;stroke-width:0.5;" x1="303.93" x2="469.0169" y1="252.9583" y2="252.9583"/><ellipse cx="313.93" cy="266.7024" fill="#84BE84" rx="3" ry="3" style="stroke:#038048;stroke-width:1.0;"/><text fill="#000000" font-family="sans-serif" font-size="14" font-weight="bold" lengthAdjust="spacing" textLength="37.8506" x="322.93" y="270.4934">deref</text><text fill="#000000" font-family="sans-serif" font-size="14" lengthAdjust="spacing" textLength="103.2363" x="360.7806" y="270.4934">(&amp;self) -&gt; &amp;[T];</text></g><!--class Iterator--><g id="elem_Iterator"><rect codeLine="13" fill="#F1F1F1" height="97.4648" id="Iterator" rx="2.5" ry="2.5" style="stroke:#181818;stroke-width:0.5;" width="561.8076" x="711.57" y="7"/><ellipse cx="963.1769" cy="23" fill="#B4A7E5" rx="11" ry="11" style="stroke:#181818;stroke-width:1.0;"/><path d="M959.1047,18.7651 L959.1047,16.6069 L966.4841,16.6069 L966.4841,18.7651 L964.0187,18.7651 L964.0187,26.8418 L966.4841,26.8418 L966.4841,29 L959.1047,29 L959.1047,26.8418 L961.57,26.8418 L961.57,18.7651 Z " fill="#000000"/><text fill="#000000" font-family="sans-serif" font-size="14" font-style="italic" lengthAdjust="spacing" textLength="50.0938" x="983.6769" y="28.291">Iterator</text><line style="stroke:#181818;stroke-width:0.5;" x1="712.57" x2="1272.3776" y1="39" y2="39"/><ellipse cx="722.57" cy="52.7441" fill="none" rx="3" ry="3" style="stroke:#038048;stroke-width:1.0;"/><text fill="#000000" font-family="sans-serif" font-size="14" lengthAdjust="spacing" textLength="58.9805" x="731.57" y="56.5352">Item = T</text><line style="stroke:#181818;stroke-width:0.5;" x1="712.57" x2="1272.3776" y1="63.4883" y2="63.4883"/><ellipse cx="722.57" cy="77.2324" fill="#84BE84" rx="3" ry="3" style="stroke:#038048;stroke-width:1.0;"/><text fill="#000000" font-family="sans-serif" font-size="14" font-weight="bold" lengthAdjust="spacing" textLength="31.3428" x="731.57" y="81.0234">next</text><text fill="#000000" font-family="sans-serif" font-size="14" lengthAdjust="spacing" textLength="179.8809" x="762.9128" y="81.0234">(&amp;mut self) -&gt; Option&lt;T&gt;</text><ellipse cx="722.57" cy="93.7207" fill="#84BE84" rx="3" ry="3" style="stroke:#038048;stroke-width:1.0;"/><text fill="#000000" font-family="sans-serif" font-size="14" font-weight="bold" lengthAdjust="spacing" textLength="46.8262" x="731.57" y="97.5117">collect</text><text fill="#000000" font-family="sans-serif" font-size="14" lengthAdjust="spacing" textLength="488.9814" x="778.3962" y="97.5117">&lt;D: FromIterator&lt;T&gt;&gt;(self) -&gt; D {&lt;D as FromIterator&gt;::from_iter(self)}</text></g><!--class IntoIterator<Item=T>--><g id="elem_IntoIterator&lt;Item=T&gt;"><rect codeLine="19" fill="#F1F1F1" height="97.4648" id="IntoIterator&lt;Item=T&gt;" rx="2.5" ry="2.5" style="stroke:#181818;stroke-width:0.5;" width="227.9473" x="429.5" y="7"/><ellipse cx="465.6126" cy="23" fill="#B4A7E5" rx="11" ry="11" style="stroke:#181818;stroke-width:1.0;"/><path d="M461.5404,18.7651 L461.5404,16.6069 L468.9198,16.6069 L468.9198,18.7651 L466.4544,18.7651 L466.4544,26.8418 L468.9198,26.8418 L468.9198,29 L461.5404,29 L461.5404,26.8418 L464.0057,26.8418 L464.0057,18.7651 Z " fill="#000000"/><text fill="#000000" font-family="sans-serif" font-size="14" font-style="italic" lengthAdjust="spacing" textLength="149.0303" x="484.3043" y="28.291">IntoIterator&lt;Item=T&gt;</text><line style="stroke:#181818;stroke-width:0.5;" x1="430.5" x2="656.4473" y1="39" y2="39"/><ellipse cx="440.5" cy="52.7441" fill="none" rx="3" ry="3" style="stroke:#038048;stroke-width:1.0;"/><text fill="#000000" font-family="sans-serif" font-size="14" lengthAdjust="spacing" textLength="58.9805" x="449.5" y="56.5352">Item = T</text><ellipse cx="440.5" cy="69.2324" fill="none" rx="3" ry="3" style="stroke:#038048;stroke-width:1.0;"/><text fill="#000000" font-family="sans-serif" font-size="14" lengthAdjust="spacing" textLength="149.8096" x="449.5" y="73.0234">IntoIter = IntoIter&lt;T&gt;</text><line style="stroke:#181818;stroke-width:0.5;" x1="430.5" x2="656.4473" y1="79.9766" y2="79.9766"/><ellipse cx="440.5" cy="93.7207" fill="#84BE84" rx="3" ry="3" style="stroke:#038048;stroke-width:1.0;"/><text fill="#000000" font-family="sans-serif" font-size="14" font-weight="bold" lengthAdjust="spacing" textLength="60.1563" x="449.5" y="97.5117">into_iter</text><text fill="#000000" font-family="sans-serif" font-size="14" lengthAdjust="spacing" textLength="141.791" x="509.6563" y="97.5117">(self) -&gt; IntoIter&lt;T&gt;</text></g><!--class FromIterator<T>--><g id="elem_FromIterator&lt;T&gt;"><rect codeLine="25" fill="#F1F1F1" height="64.4883" id="FromIterator&lt;T&gt;" rx="2.5" ry="2.5" style="stroke:#181818;stroke-width:0.5;" width="474.6084" x="1237.17" y="204.71"/><ellipse cx="1412.17" cy="220.71" fill="#B4A7E5" rx="11" ry="11" style="stroke:#181818;stroke-width:1.0;"/><path d="M1408.0977,216.4751 L1408.0977,214.3169 L1415.4771,214.3169 L1415.4771,216.4751 L1413.0118,216.4751 L1413.0118,224.5518 L1415.4771,224.5518 L1415.4771,226.71 L1408.0977,226.71 L1408.0977,224.5518 L1410.5631,224.5518 L1410.5631,216.4751 Z " fill="#000000"/><text fill="#000000" font-family="sans-serif" font-size="14" font-style="italic" lengthAdjust="spacing" textLength="116.1084" x="1432.67" y="226.001">FromIterator&lt;T&gt;</text><line style="stroke:#181818;stroke-width:0.5;" x1="1238.17" x2="1710.7784" y1="236.71" y2="236.71"/><line style="stroke:#181818;stroke-width:0.5;" x1="1238.17" x2="1710.7784" y1="244.71" y2="244.71"/><ellipse cx="1248.17" cy="258.4541" fill="#84BE84" rx="3" ry="3" style="stroke:#038048;stroke-width:1.0;"/><text fill="#000000" font-family="sans-serif" font-size="14" lengthAdjust="spacing" textLength="13.8359" x="1257.17" y="262.2452">fn</text><text fill="#000000" font-family="sans-serif" font-size="14" font-weight="bold" lengthAdjust="spacing" textLength="66.4795" x="1275.4356" y="262.2452">from_iter</text><text fill="#000000" font-family="sans-serif" font-size="14" lengthAdjust="spacing" textLength="363.8633" x="1341.9151" y="262.2452">&lt;T&gt;(iter: T) -&gt; Self where T: IntoIterator&lt;Item = A&gt;;</text></g><!--class IntoIter<T>--><g id="elem_IntoIter&lt;T&gt;"><rect codeLine="29" fill="#F1F1F1" height="64.4883" id="IntoIter&lt;T&gt;" rx="2.5" ry="2.5" style="stroke:#181818;stroke-width:0.5;" width="213.2021" x="576.87" y="204.71"/><ellipse cx="638.9882" cy="220.71" fill="#ADD1B2" rx="11" ry="11" style="stroke:#181818;stroke-width:1.0;"/><path d="M641.9613,226.3531 Q641.3803,226.6519 640.7411,226.8013 Q640.1019,226.9507 639.3964,226.9507 Q636.8895,226.9507 635.5697,225.2989 Q634.2499,223.647 634.2499,220.5259 Q634.2499,217.3965 635.5697,215.7447 Q636.8895,214.0928 639.3964,214.0928 Q640.1019,214.0928 640.7494,214.2422 Q641.3969,214.3916 641.9613,214.6905 L641.9613,217.4131 Q641.3304,216.8321 640.7369,216.5623 Q640.1434,216.2925 639.5126,216.2925 Q638.1679,216.2925 637.483,217.3592 Q636.7982,218.4258 636.7982,220.5259 Q636.7982,222.6177 637.483,223.6844 Q638.1679,224.751 639.5126,224.751 Q640.1434,224.751 640.7369,224.4812 Q641.3304,224.2115 641.9613,223.6304 Z " fill="#000000"/><text fill="#000000" font-family="sans-serif" font-size="14" lengthAdjust="spacing" textLength="80.4658" x="659.4882" y="226.001">IntoIter&lt;T&gt;</text><line style="stroke:#181818;stroke-width:0.5;" x1="577.87" x2="789.0721" y1="236.71" y2="236.71"/><line style="stroke:#181818;stroke-width:0.5;" x1="577.87" x2="789.0721" y1="244.71" y2="244.71"/><ellipse cx="587.87" cy="258.4541" fill="#84BE84" rx="3" ry="3" style="stroke:#038048;stroke-width:1.0;"/><text fill="#000000" font-family="sans-serif" font-size="14" font-weight="bold" lengthAdjust="spacing" textLength="60.1563" x="596.87" y="262.2452">into_iter</text><text fill="#000000" font-family="sans-serif" font-size="14" lengthAdjust="spacing" textLength="127.0459" x="657.0263" y="262.2452">(&amp;mut self) -&gt; Self</text></g><!--class Vec<T>--><g id="elem_Vec&lt;T&gt;"><rect codeLine="34" fill="#F1F1F1" height="80.9766" id="Vec&lt;T&gt;" rx="2.5" ry="2.5" style="stroke:#181818;stroke-width:0.5;" width="413.6523" x="316.65" y="354.44"/><ellipse cx="491.609" cy="370.44" fill="#ADD1B2" rx="11" ry="11" style="stroke:#181818;stroke-width:1.0;"/><path d="M494.5821,376.0831 Q494.0011,376.3819 493.3619,376.5313 Q492.7228,376.6807 492.0172,376.6807 Q489.5104,376.6807 488.1905,375.0289 Q486.8707,373.377 486.8707,370.2559 Q486.8707,367.1265 488.1905,365.4747 Q489.5104,363.8228 492.0172,363.8228 Q492.7228,363.8228 493.3702,363.9722 Q494.0177,364.1216 494.5821,364.4205 L494.5821,367.1431 Q493.9513,366.5621 493.3578,366.2923 Q492.7643,366.0225 492.1334,366.0225 Q490.7887,366.0225 490.1039,367.0892 Q489.419,368.1558 489.419,370.2559 Q489.419,372.3477 490.1039,373.4144 Q490.7887,374.481 492.1334,374.481 Q492.7643,374.481 493.3578,374.2112 Q493.9513,373.9415 494.5821,373.3604 Z " fill="#000000"/><text fill="#000000" font-family="sans-serif" font-size="14" lengthAdjust="spacing" textLength="55.2344" x="512.109" y="375.731">Vec&lt;T&gt;</text><line style="stroke:#181818;stroke-width:0.5;" x1="317.65" x2="729.3023" y1="386.44" y2="386.44"/><line style="stroke:#181818;stroke-width:0.5;" x1="317.65" x2="729.3023" y1="394.44" y2="394.44"/><ellipse cx="327.65" cy="408.1841" fill="#84BE84" rx="3" ry="3" style="stroke:#038048;stroke-width:1.0;"/><text fill="#000000" font-family="sans-serif" font-size="14" font-weight="bold" lengthAdjust="spacing" textLength="60.1563" x="336.65" y="411.9752">into_iter</text><text fill="#000000" font-family="sans-serif" font-size="14" lengthAdjust="spacing" textLength="182.9775" x="396.8063" y="411.9752">(&amp;mut self) -&gt; IntoIter&lt;T&gt;</text><ellipse cx="327.65" cy="424.6724" fill="#84BE84" rx="3" ry="3" style="stroke:#038048;stroke-width:1.0;"/><text fill="#000000" font-family="sans-serif" font-size="14" font-weight="bold" lengthAdjust="spacing" textLength="66.4795" x="336.65" y="428.4634">from_iter</text><text fill="#000000" font-family="sans-serif" font-size="14" lengthAdjust="spacing" textLength="321.1729" x="403.1295" y="428.4634">&lt;I: IntoIterator&lt;Item = T&gt;&gt;(iter: I) -&gt; Vec&lt;T&gt;</text></g><!--entity Option<T>--><g id="elem_Option&lt;T&gt;"><rect fill="#F1F1F1" height="22.4883" rx="2.5" ry="2.5" style="stroke:#181818;stroke-width:0.5;" width="97.3691" x="1104.79" y="225.71"/><text fill="#000000" font-family="sans-serif" font-size="14" lengthAdjust="spacing" textLength="77.3691" x="1114.79" y="242.2452">Option&lt;T&gt;</text></g><!--entity D: FromIterator<T>--><g id="elem_D: FromIterator&lt;T&gt;"><rect fill="#F1F1F1" height="22.4883" rx="2.5" ry="2.5" style="stroke:#181818;stroke-width:0.5;" width="155.4541" x="914.75" y="225.71"/><text fill="#000000" font-family="sans-serif" font-size="14" lengthAdjust="spacing" textLength="135.4541" x="924.75" y="242.2452">D: FromIterator&lt;T&gt;</text></g><!--reverse link IntoIterator<Item=T> to Vec<T>--><g id="link_IntoIterator&lt;Item=T&gt;_Vec&lt;T&gt;"><path codeLine="39" d="M539.5639,122.6584 C535.5939,189.5684 529.54,291.75 525.84,354.04 " fill="none" id="IntoIterator&lt;Item=T&gt;-backto-Vec&lt;T&gt;" style="stroke:#181818;stroke-width:1.0;stroke-dasharray:7.0,7.0;"/><polygon fill="none" points="540.63,104.69,533.5744,122.303,545.5533,123.0138,540.63,104.69" style="stroke:#181818;stroke-width:1.0;"/></g><!--reverse link IntoIter<T> to Vec<T>--><g id="link_IntoIter&lt;T&gt;_Vec&lt;T&gt;"><path codeLine="41" d="M646.8036,273.7082 C621.7836,298.0982 591.29,327.83 564.35,354.09 " fill="none" id="IntoIter&lt;T&gt;-backto-Vec&lt;T&gt;" style="stroke:#181818;stroke-width:1.0;stroke-dasharray:1.0,3.0;"/><polygon fill="#181818" points="651.1,269.52,641.8633,272.938,647.5197,273.0102,647.4476,278.6666,651.1,269.52" style="stroke:#181818;stroke-width:1.0;"/><text fill="#000000" font-family="sans-serif" font-size="13" lengthAdjust="spacing" textLength="60.8105" x="609.27" y="321.0084">into_iter()</text></g><!--reverse link IntoIter<T> to IntoIter<T>--><g id="link_IntoIter&lt;T&gt;_IntoIter&lt;T&gt;"><path codeLine="42" d="M796.2795,223.3461 C816.6495,225.0361 825.08,229.24 825.08,236.96 C825.08,244.67 810.67,249.37 790.3,251.06 " fill="none" id="IntoIter&lt;T&gt;-backto-IntoIter&lt;T&gt;" style="stroke:#181818;stroke-width:1.0;stroke-dasharray:1.0,3.0;"/><polygon fill="#181818" points="790.3,222.85,798.9385,227.5804,795.2829,223.2634,799.5999,219.6078,790.3,222.85" style="stroke:#181818;stroke-width:1.0;"/><text fill="#000000" font-family="sans-serif" font-size="13" lengthAdjust="spacing" textLength="60.8105" x="831.08" y="242.0284">into_iter()</text></g><!--reverse link Iterator to IntoIter<T>--><g id="link_Iterator_IntoIter&lt;T&gt;"><path codeLine="44" d="M952.9127,119.6575 C937.7427,141.1575 927.86,150.48 904.48,166.47 C870.61,189.62 828.65,205.36 790.42,215.91 " fill="none" id="Iterator-backto-IntoIter&lt;T&gt;" style="stroke:#181818;stroke-width:1.0;stroke-dasharray:7.0,7.0;"/><polygon fill="none" points="963.29,104.95,948.0102,116.1984,957.8152,123.1166,963.29,104.95" style="stroke:#181818;stroke-width:1.0;"/></g><!--reverse link Deref<Target=[T]> to Vec<T>--><g id="link_Deref&lt;Target=[T]&gt;_Vec&lt;T&gt;"><path codeLine="46" d="M433.2797,291.2431 C453.8097,314.6131 467.81,330.56 488.38,353.97 " fill="none" id="Deref&lt;Target=[T]&gt;-backto-Vec&lt;T&gt;" style="stroke:#181818;stroke-width:1.0;stroke-dasharray:7.0,7.0;"/><polygon fill="none" points="421.4,277.72,428.772,295.203,437.7874,287.2832,421.4,277.72" style="stroke:#181818;stroke-width:1.0;"/></g><!--reverse link DerefMut<Target=[T]> to Vec<T>--><g id="link_DerefMut&lt;Target=[T]&gt;_Vec&lt;T&gt;"><path codeLine="47" d="M253.0686,284.6647 C310.9186,308.0447 367.02,330.71 424.83,354.07 " fill="none" id="DerefMut&lt;Target=[T]&gt;-backto-Vec&lt;T&gt;" style="stroke:#181818;stroke-width:1.0;stroke-dasharray:7.0,7.0;"/><polygon fill="none" points="236.38,277.92,250.8204,290.2275,255.3168,279.1018,236.38,277.92" style="stroke:#181818;stroke-width:1.0;"/></g><!--reverse link FromIterator<T> to Vec<T>--><g id="link_FromIterator&lt;T&gt;_Vec&lt;T&gt;"><path codeLine="49" d="M1263.4073,272.5733 C1103.3573,298.8233 894.24,333.12 730.51,359.97 " fill="none" id="FromIterator&lt;T&gt;-backto-Vec&lt;T&gt;" style="stroke:#181818;stroke-width:1.0;stroke-dasharray:7.0,7.0;"/><polygon fill="none" points="1281.17,269.66,1262.4362,266.6524,1264.3784,278.4942,1281.17,269.66" style="stroke:#181818;stroke-width:1.0;"/></g><!--link Vec<T> to Vec<T>--><g id="link_Vec&lt;T&gt;_Vec&lt;T&gt;"><path codeLine="51" d="M730.73,382.76 C751.83,385.17 765.3,389.22 765.3,394.93 C765.3,400.64 757.7912,404.0191 736.6912,406.4291 " fill="none" id="Vec&lt;T&gt;-to-Vec&lt;T&gt;" style="stroke:#181818;stroke-width:1.0;stroke-dasharray:1.0,3.0;"/><polygon fill="#181818" points="730.73,407.11,740.1258,410.0628,735.6977,406.5426,739.2179,402.1145,730.73,407.11" style="stroke:#181818;stroke-width:1.0;"/><text fill="#000000" font-family="sans-serif" font-size="13" lengthAdjust="spacing" textLength="66.3584" x="771.3" y="399.9984">from_iter()</text></g><!--link Iterator to D: FromIterator<T>--><g id="link_Iterator_D: FromIterator&lt;T&gt;"><path codeLine="56" d="M992.48,104.76 C992.48,146.03 992.48,196.41 992.48,219.48 " fill="none" id="Iterator-to-D: FromIterator&lt;T&gt;" style="stroke:#181818;stroke-width:1.0;stroke-dasharray:1.0,3.0;"/><polygon fill="#181818" points="992.48,225.48,996.48,216.48,992.48,220.48,988.48,216.48,992.48,225.48" style="stroke:#181818;stroke-width:1.0;"/><text fill="#000000" font-family="sans-serif" font-size="13" lengthAdjust="spacing" textLength="88.0103" x="993.48" y="155.5384">collect::&lt;D&gt;()</text></g><!--link Iterator to Option<T>--><g id="link_Iterator_Option&lt;T&gt;"><path codeLine="57" d="M1059.56,104.81 C1070.48,114.04 1081.23,124.09 1090.48,134.47 C1116.83,164.04 1136.2857,200.5941 1145.8057,219.9841 " fill="none" id="Iterator-to-Option&lt;T&gt;" style="stroke:#181818;stroke-width:1.0;stroke-dasharray:1.0,3.0;"/><polygon fill="#181818" points="1148.45,225.37,1148.0741,215.5283,1146.2464,220.8818,1140.8929,219.0541,1148.45,225.37" style="stroke:#181818;stroke-width:1.0;"/><text fill="#000000" font-family="sans-serif" font-size="13" lengthAdjust="spacing" textLength="36.6006" x="1115.31" y="155.5384">next()</text></g><!--reverse link IntoIterator<Item=T> to IntoIter<T>--><g id="link_IntoIterator&lt;Item=T&gt;_IntoIter&lt;T&gt;"><path codeLine="59" d="M573.2858,121.0013 C583.4558,141.0413 588.49,147.87 603.48,166.47 C614.44,180.08 628.28,193.16 641.36,204.22 " fill="none" id="IntoIterator&lt;Item=T&gt;-backto-IntoIter&lt;T&gt;" style="stroke:#181818;stroke-width:1.0;stroke-dasharray:7.0,7.0;"/><polygon fill="none" points="565.14,104.95,567.9354,123.7166,578.6363,118.2861,565.14,104.95" style="stroke:#181818;stroke-width:1.0;"/><text fill="#000000" font-family="sans-serif" font-size="13" lengthAdjust="spacing" textLength="78.8379" x="622.1201" y="148.0384">blanket impl</text><text fill="#000000" font-family="sans-serif" font-size="13" font-weight="bold" lengthAdjust="spacing" textLength="76.6479" x="705.0713" y="148.0384">IntoIterator</text><text fill="#000000" font-family="sans-serif" font-size="13" lengthAdjust="spacing" textLength="96.916" x="785.8325" y="148.0384">for IntoIter&lt;T&gt;</text><text fill="#000000" font-family="sans-serif" font-size="13" lengthAdjust="spacing" textLength="208.1587" x="608.5933" y="163.3489">because IntoIter&lt;T&gt; implements</text><text fill="#000000" font-family="sans-serif" font-size="13" font-weight="bold" lengthAdjust="spacing" textLength="79.5234" x="820.8653" y="163.3489">Iterator&lt;b&gt;</text></g><!--SRC=[XLHFRu8m5B_pALuyB1YZkpDiieGiuR3iCBABCwP0SMHG3DHeulpkUorGAA1wQf-_Vw-lXMPPSThbwJdbUyjAkM1bGYC6Cu-LB7a_2ZUWvPw9zIROaXbSBC3V0keYh07BJSaDIImvknn9po6ndt015SkIEIm9g9r4NySsZprU1YQrGIUk88QoZmigYbB9BUGsHwd0QbGuEq-b_3Y8jE1kG5fSL6GPYnJKzHnuAukyLKOKiJNJWulh0QqC276S1BUx5FSrz3het-UYq88ov3he7K4ljTesO2oropfg4nPr2-MbEjFH-bZJVT1EPvnmgQUpg_O3Oikr0u5I_KHvEFtWD21mODG7PdmbQYPHHgkgwzJm6OKsno4zf4IhySKYJNz8DezeCMx8duujnretwYkTsbJ6k34jzs-rqjbwA1NLNMxYGWWMRvTTVWTqS7j-Zs3yOx8iVSDh_puKGqmyB3FdZHS-R6PqHOQ0jgSkDkatsjr_Z1pHCeQPVcIpfZ1-MEeOc-r0UWACDiqxTHpN8-f8fycTDNBaDq2ckZlMmGJ2ZF9V_2gb-I6JDygWugM210VIutnp25b4ZnNhLnMTvOoBIecq0Y6n_W40]--></g></svg>