<svg xmlns="http://www.w3.org/2000/svg" xmlns:xlink="http://www.w3.org/1999/xlink" contentStyleType="text/css" height="534px" preserveAspectRatio="none" style="width:1110px;height:534px;background:#FFFFFF;" version="1.1" viewBox="0 0 1110 534" width="1110px" zoomAndPan="magnify"><defs/><g><!--class Iterator<Item=&T>--><g id="elem_Iterator&lt;Item=&amp;T&gt;"><rect codeLine="3" fill="#F1F1F1" height="64.4883" id="Iterator&lt;Item=&amp;T&gt;" rx="2.5" ry="2.5" style="stroke:#181818;stroke-width:0.5;" width="164.2344" x="25.48" y="338.44"/><ellipse cx="40.48" cy="354.44" fill="#B4A7E5" rx="11" ry="11" style="stroke:#181818;stroke-width:1.0;"/><path d="M36.4077,350.2051 L36.4077,348.0469 L43.7871,348.0469 L43.7871,350.2051 L41.3218,350.2051 L41.3218,358.2818 L43.7871,358.2818 L43.7871,360.44 L36.4077,360.44 L36.4077,358.2818 L38.8731,358.2818 L38.8731,350.2051 Z " fill="#000000"/><text fill="#000000" font-family="sans-serif" font-size="14" font-style="italic" lengthAdjust="spacing" textLength="132.2344" x="54.48" y="359.731">Iterator&lt;Item=&amp;T&gt;</text><line style="stroke:#181818;stroke-width:0.5;" x1="26.48" x2="188.7144" y1="370.44" y2="370.44"/><ellipse cx="36.48" cy="384.1841" fill="none" rx="3" ry="3" style="stroke:#038048;stroke-width:1.0;"/><text fill="#000000" font-family="sans-serif" font-size="14" lengthAdjust="spacing" textLength="84.1094" x="45.48" y="387.9752">Item = &amp;'a T</text><line style="stroke:#181818;stroke-width:0.5;" x1="26.48" x2="188.7144" y1="394.9283" y2="394.9283"/></g><!--class Iterator<Item=&mut T>--><g id="elem_Iterator&lt;Item=&amp;mut T&gt;"><rect codeLine="7" fill="#F1F1F1" height="64.4883" id="Iterator&lt;Item=&amp;mut T&gt;" rx="2.5" ry="2.5" style="stroke:#181818;stroke-width:0.5;" width="195.6592" x="804.77" y="338.44"/><ellipse cx="819.77" cy="354.44" fill="#B4A7E5" rx="11" ry="11" style="stroke:#181818;stroke-width:1.0;"/><path d="M815.6977,350.2051 L815.6977,348.0469 L823.0771,348.0469 L823.0771,350.2051 L820.6118,350.2051 L820.6118,358.2818 L823.0771,358.2818 L823.0771,360.44 L815.6977,360.44 L815.6977,358.2818 L818.1631,358.2818 L818.1631,350.2051 Z " fill="#000000"/><text fill="#000000" font-family="sans-serif" font-size="14" font-style="italic" lengthAdjust="spacing" textLength="163.6592" x="833.77" y="359.731">Iterator&lt;Item=&amp;mut T&gt;</text><line style="stroke:#181818;stroke-width:0.5;" x1="805.77" x2="999.4292" y1="370.44" y2="370.44"/><ellipse cx="815.77" cy="384.1841" fill="none" rx="3" ry="3" style="stroke:#038048;stroke-width:1.0;"/><text fill="#000000" font-family="sans-serif" font-size="14" lengthAdjust="spacing" textLength="115.5342" x="824.77" y="387.9752">Item = &amp;'a mut T</text><line style="stroke:#181818;stroke-width:0.5;" x1="805.77" x2="999.4292" y1="394.9283" y2="394.9283"/></g><!--class IntoIterator<&T>--><g id="elem_IntoIterator&lt;&amp;T&gt;"><rect codeLine="11" fill="#F1F1F1" height="97.4648" id="IntoIterator&lt;&amp;T&gt;" rx="2.5" ry="2.5" style="stroke:#181818;stroke-width:0.5;" width="295.1992" x="7" y="7"/><ellipse cx="112.0239" cy="23" fill="#B4A7E5" rx="11" ry="11" style="stroke:#181818;stroke-width:1.0;"/><path d="M107.9517,18.7651 L107.9517,16.6069 L115.3311,16.6069 L115.3311,18.7651 L112.8657,18.7651 L112.8657,26.8418 L115.3311,26.8418 L115.3311,29 L107.9517,29 L107.9517,26.8418 L110.417,26.8418 L110.417,18.7651 Z " fill="#000000"/><text fill="#000000" font-family="sans-serif" font-size="14" font-style="italic" lengthAdjust="spacing" textLength="76.6514" x="132.5239" y="28.291">IntoIterator</text><line style="stroke:#181818;stroke-width:0.5;" x1="8" x2="301.1992" y1="39" y2="39"/><ellipse cx="18" cy="52.7441" fill="none" rx="3" ry="3" style="stroke:#038048;stroke-width:1.0;"/><text fill="#000000" font-family="sans-serif" font-size="14" lengthAdjust="spacing" textLength="84.1094" x="27" y="56.5352">Item = &amp;'a T</text><ellipse cx="18" cy="69.2324" fill="none" rx="3" ry="3" style="stroke:#038048;stroke-width:1.0;"/><text fill="#000000" font-family="sans-serif" font-size="14" lengthAdjust="spacing" textLength="143.0488" x="27" y="73.0234">IntoIter = Iter&lt;'a, T&gt;</text><line style="stroke:#181818;stroke-width:0.5;" x1="8" x2="301.1992" y1="79.9766" y2="79.9766"/><ellipse cx="18" cy="93.7207" fill="#84BE84" rx="3" ry="3" style="stroke:#038048;stroke-width:1.0;"/><text fill="#000000" font-family="sans-serif" font-size="14" font-weight="bold" lengthAdjust="spacing" textLength="60.1563" x="27" y="97.5117">into_iter</text><text fill="#000000" font-family="sans-serif" font-size="14" lengthAdjust="spacing" textLength="209.043" x="87.1563" y="97.5117">(self) -&gt; Iter&lt;'a, T&gt; {self.iter()}</text></g><!--class IntoIterator<&mut T>--><g id="elem_IntoIterator&lt;&amp;mut T&gt;"><rect codeLine="17" fill="#F1F1F1" height="97.4648" id="IntoIterator&lt;&amp;mut T&gt;" rx="2.5" ry="2.5" style="stroke:#181818;stroke-width:0.5;" width="329.1943" x="651" y="7"/><ellipse cx="736.873" cy="23" fill="#B4A7E5" rx="11" ry="11" style="stroke:#181818;stroke-width:1.0;"/><path d="M732.8008,18.7651 L732.8008,16.6069 L740.1802,16.6069 L740.1802,18.7651 L737.7148,18.7651 L737.7148,26.8418 L740.1802,26.8418 L740.1802,29 L732.8008,29 L732.8008,26.8418 L735.2661,26.8418 L735.2661,18.7651 Z " fill="#000000"/><text fill="#000000" font-family="sans-serif" font-size="14" font-style="italic" lengthAdjust="spacing" textLength="148.9482" x="757.373" y="28.291">IntoIterator&lt;&amp;mut T&gt;</text><line style="stroke:#181818;stroke-width:0.5;" x1="652" x2="979.1943" y1="39" y2="39"/><ellipse cx="662" cy="52.7441" fill="none" rx="3" ry="3" style="stroke:#038048;stroke-width:1.0;"/><text fill="#000000" font-family="sans-serif" font-size="14" lengthAdjust="spacing" textLength="115.5342" x="671" y="56.5352">Item = &amp;'a mut T</text><ellipse cx="662" cy="69.2324" fill="none" rx="3" ry="3" style="stroke:#038048;stroke-width:1.0;"/><text fill="#000000" font-family="sans-serif" font-size="14" lengthAdjust="spacing" textLength="143.0488" x="671" y="73.0234">IntoIter = Iter&lt;'a, T&gt;</text><line style="stroke:#181818;stroke-width:0.5;" x1="652" x2="979.1943" y1="79.9766" y2="79.9766"/><ellipse cx="662" cy="93.7207" fill="#84BE84" rx="3" ry="3" style="stroke:#038048;stroke-width:1.0;"/><text fill="#000000" font-family="sans-serif" font-size="14" font-weight="bold" lengthAdjust="spacing" textLength="60.1563" x="671" y="97.5117">into_iter</text><text fill="#000000" font-family="sans-serif" font-size="14" lengthAdjust="spacing" textLength="243.0381" x="731.1563" y="97.5117">(self) -&gt; Iter&lt;'a, T&gt; {self.iter_mut()}</text></g><!--class  [T]--><g id="elem_ [T]"><rect codeLine="23" fill="#F1F1F1" height="80.9766" id=" [T]" rx="2.5" ry="2.5" style="stroke:#181818;stroke-width:0.5;" width="409.1885" x="313.01" y="165.47"/><ellipse cx="502.1604" cy="181.47" fill="#ADD1B2" rx="11" ry="11" style="stroke:#181818;stroke-width:1.0;"/><path d="M505.1335,187.1131 Q504.5525,187.4119 503.9133,187.5613 Q503.2742,187.7107 502.5686,187.7107 Q500.0618,187.7107 498.7419,186.0589 Q497.4221,184.407 497.4221,181.2859 Q497.4221,178.1565 498.7419,176.5047 Q500.0618,174.8528 502.5686,174.8528 Q503.2742,174.8528 503.9216,175.0022 Q504.5691,175.1516 505.1335,175.4505 L505.1335,178.1731 Q504.5027,177.5921 503.9092,177.3223 Q503.3157,177.0525 502.6848,177.0525 Q501.3401,177.0525 500.6553,178.1192 Q499.9704,179.1858 499.9704,181.2859 Q499.9704,183.3777 500.6553,184.4444 Q501.3401,185.511 502.6848,185.511 Q503.3157,185.511 503.9092,185.2412 Q504.5027,184.9715 505.1335,184.3904 Z " fill="#000000"/><text fill="#000000" font-family="sans-serif" font-size="14" lengthAdjust="spacing" textLength="17.958" x="527.0901" y="186.761">[T]</text><line style="stroke:#181818;stroke-width:0.5;" x1="314.01" x2="721.1985" y1="197.47" y2="197.47"/><line style="stroke:#181818;stroke-width:0.5;" x1="314.01" x2="721.1985" y1="205.47" y2="205.47"/><ellipse cx="324.01" cy="219.2141" fill="#84BE84" rx="3" ry="3" style="stroke:#038048;stroke-width:1.0;"/><text fill="#000000" font-family="sans-serif" font-size="14" font-weight="bold" lengthAdjust="spacing" textLength="24.7939" x="333.01" y="223.0052">iter</text><text fill="#000000" font-family="sans-serif" font-size="14" lengthAdjust="spacing" textLength="239.5586" x="357.8039" y="223.0052">(&amp;self) -&gt; Iter&lt;T&gt; { Iter::new(self) }</text><ellipse cx="324.01" cy="235.7024" fill="#84BE84" rx="3" ry="3" style="stroke:#038048;stroke-width:1.0;"/><text fill="#000000" font-family="sans-serif" font-size="14" font-weight="bold" lengthAdjust="spacing" textLength="60.2383" x="333.01" y="239.4934">iter_mut</text><text fill="#000000" font-family="sans-serif" font-size="14" lengthAdjust="spacing" textLength="322.9502" x="393.2483" y="239.4934">(&amp;mut self) -&gt; IterMut&lt;T&gt; { IterMut::new(self) }</text></g><!--class &[T]--><g id="elem_&amp;[T]"><rect codeLine="28" fill="#F1F1F1" height="48" id="&amp;[T]" rx="2.5" ry="2.5" style="stroke:#181818;stroke-width:0.5;" width="59.7197" x="224.74" y="346.69"/><ellipse cx="239.74" cy="362.69" fill="#ADD1B2" rx="11" ry="11" style="stroke:#181818;stroke-width:1.0;"/><path d="M242.7131,368.3331 Q242.1321,368.6319 241.4929,368.7813 Q240.8538,368.9307 240.1482,368.9307 Q237.6414,368.9307 236.3215,367.2789 Q235.0017,365.627 235.0017,362.5059 Q235.0017,359.3765 236.3215,357.7247 Q237.6414,356.0728 240.1482,356.0728 Q240.8538,356.0728 241.5012,356.2222 Q242.1487,356.3716 242.7131,356.6705 L242.7131,359.3931 Q242.0823,358.8121 241.4888,358.5423 Q240.8953,358.2725 240.2644,358.2725 Q238.9197,358.2725 238.2349,359.3392 Q237.5501,360.4058 237.5501,362.5059 Q237.5501,364.5977 238.2349,365.6644 Q238.9197,366.731 240.2644,366.731 Q240.8953,366.731 241.4888,366.4612 Q242.0823,366.1915 242.7131,365.6104 Z " fill="#000000"/><text fill="#000000" font-family="sans-serif" font-size="14" lengthAdjust="spacing" textLength="27.7197" x="253.74" y="367.981">&amp;[T]</text><line style="stroke:#181818;stroke-width:0.5;" x1="225.74" x2="283.4597" y1="378.69" y2="378.69"/><line style="stroke:#181818;stroke-width:0.5;" x1="225.74" x2="283.4597" y1="386.69" y2="386.69"/></g><!--class &mut [T]--><g id="elem_&amp;mut [T]"><rect codeLine="29" fill="#F1F1F1" height="48" id="&amp;mut [T]" rx="2.5" ry="2.5" style="stroke:#181818;stroke-width:0.5;" width="91.1445" x="679.03" y="346.69"/><ellipse cx="694.03" cy="362.69" fill="#ADD1B2" rx="11" ry="11" style="stroke:#181818;stroke-width:1.0;"/><path d="M697.0031,368.3331 Q696.4221,368.6319 695.7829,368.7813 Q695.1438,368.9307 694.4382,368.9307 Q691.9314,368.9307 690.6115,367.2789 Q689.2917,365.627 689.2917,362.5059 Q689.2917,359.3765 690.6115,357.7247 Q691.9314,356.0728 694.4382,356.0728 Q695.1438,356.0728 695.7912,356.2222 Q696.4387,356.3716 697.0031,356.6705 L697.0031,359.3931 Q696.3723,358.8121 695.7788,358.5423 Q695.1853,358.2725 694.5544,358.2725 Q693.2097,358.2725 692.5249,359.3392 Q691.8401,360.4058 691.8401,362.5059 Q691.8401,364.5977 692.5249,365.6644 Q693.2097,366.731 694.5544,366.731 Q695.1853,366.731 695.7788,366.4612 Q696.3723,366.1915 697.0031,365.6104 Z " fill="#000000"/><text fill="#000000" font-family="sans-serif" font-size="14" lengthAdjust="spacing" textLength="59.1445" x="708.03" y="367.981">&amp;mut [T]</text><line style="stroke:#181818;stroke-width:0.5;" x1="680.03" x2="769.1745" y1="378.69" y2="378.69"/><line style="stroke:#181818;stroke-width:0.5;" x1="680.03" x2="769.1745" y1="386.69" y2="386.69"/></g><!--class &Vec<T>--><g id="elem_&amp;Vec&lt;T&gt;"><rect fill="#F1F1F1" height="48" id="&amp;Vec&lt;T&gt;" rx="2.5" ry="2.5" style="stroke:#181818;stroke-width:0.5;" width="96.9961" x="181.1" y="181.95"/><ellipse cx="196.1" cy="197.95" fill="#ADD1B2" rx="11" ry="11" style="stroke:#181818;stroke-width:1.0;"/><path d="M199.0731,203.5931 Q198.4921,203.8919 197.8529,204.0413 Q197.2138,204.1907 196.5082,204.1907 Q194.0014,204.1907 192.6815,202.5389 Q191.3617,200.887 191.3617,197.7659 Q191.3617,194.6365 192.6815,192.9847 Q194.0014,191.3328 196.5082,191.3328 Q197.2138,191.3328 197.8612,191.4822 Q198.5087,191.6316 199.0731,191.9305 L199.0731,194.6531 Q198.4423,194.0721 197.8488,193.8023 Q197.2553,193.5325 196.6244,193.5325 Q195.2797,193.5325 194.5949,194.5992 Q193.9101,195.6658 193.9101,197.7659 Q193.9101,199.8577 194.5949,200.9244 Q195.2797,201.991 196.6244,201.991 Q197.2553,201.991 197.8488,201.7212 Q198.4423,201.4515 199.0731,200.8704 Z " fill="#000000"/><text fill="#000000" font-family="sans-serif" font-size="14" lengthAdjust="spacing" textLength="64.9961" x="210.1" y="203.241">&amp;Vec&lt;T&gt;</text><line style="stroke:#181818;stroke-width:0.5;" x1="182.1" x2="277.0961" y1="213.95" y2="213.95"/><line style="stroke:#181818;stroke-width:0.5;" x1="182.1" x2="277.0961" y1="221.95" y2="221.95"/></g><!--class &mut Vec<T>--><g id="elem_&amp;mut Vec&lt;T&gt;"><rect fill="#F1F1F1" height="48" id="&amp;mut Vec&lt;T&gt;" rx="2.5" ry="2.5" style="stroke:#181818;stroke-width:0.5;" width="128.4209" x="828.39" y="181.95"/><ellipse cx="843.39" cy="197.95" fill="#ADD1B2" rx="11" ry="11" style="stroke:#181818;stroke-width:1.0;"/><path d="M846.3631,203.5931 Q845.7821,203.8919 845.1429,204.0413 Q844.5038,204.1907 843.7982,204.1907 Q841.2914,204.1907 839.9715,202.5389 Q838.6517,200.887 838.6517,197.7659 Q838.6517,194.6365 839.9715,192.9847 Q841.2914,191.3328 843.7982,191.3328 Q844.5038,191.3328 845.1512,191.4822 Q845.7987,191.6316 846.3631,191.9305 L846.3631,194.6531 Q845.7323,194.0721 845.1388,193.8023 Q844.5453,193.5325 843.9144,193.5325 Q842.5697,193.5325 841.8849,194.5992 Q841.2001,195.6658 841.2001,197.7659 Q841.2001,199.8577 841.8849,200.9244 Q842.5697,201.991 843.9144,201.991 Q844.5453,201.991 845.1388,201.7212 Q845.7323,201.4515 846.3631,200.8704 Z " fill="#000000"/><text fill="#000000" font-family="sans-serif" font-size="14" lengthAdjust="spacing" textLength="96.4209" x="857.39" y="203.241">&amp;mut Vec&lt;T&gt;</text><line style="stroke:#181818;stroke-width:0.5;" x1="829.39" x2="955.8109" y1="213.95" y2="213.95"/><line style="stroke:#181818;stroke-width:0.5;" x1="829.39" x2="955.8109" y1="221.95" y2="221.95"/></g><!--class Iter<T>--><g id="elem_Iter&lt;T&gt;"><rect fill="#F1F1F1" height="48" id="Iter&lt;T&gt;" rx="2.5" ry="2.5" style="stroke:#181818;stroke-width:0.5;" width="85.9082" x="195.65" y="479.93"/><ellipse cx="210.65" cy="495.93" fill="#ADD1B2" rx="11" ry="11" style="stroke:#181818;stroke-width:1.0;"/><path d="M213.6231,501.5731 Q213.0421,501.8719 212.4029,502.0213 Q211.7638,502.1707 211.0582,502.1707 Q208.5514,502.1707 207.2315,500.5189 Q205.9117,498.867 205.9117,495.7459 Q205.9117,492.6165 207.2315,490.9647 Q208.5514,489.3128 211.0582,489.3128 Q211.7638,489.3128 212.4112,489.4622 Q213.0587,489.6116 213.6231,489.9105 L213.6231,492.6331 Q212.9923,492.0521 212.3988,491.7823 Q211.8053,491.5125 211.1744,491.5125 Q209.8297,491.5125 209.1449,492.5792 Q208.4601,493.6458 208.4601,495.7459 Q208.4601,497.8377 209.1449,498.9044 Q209.8297,499.971 211.1744,499.971 Q211.8053,499.971 212.3988,499.7012 Q212.9923,499.4315 213.6231,498.8504 Z " fill="#000000"/><text fill="#000000" font-family="sans-serif" font-size="14" lengthAdjust="spacing" textLength="53.9082" x="224.65" y="501.221">Iter&lt;T&gt;</text><line style="stroke:#181818;stroke-width:0.5;" x1="196.65" x2="280.5582" y1="511.93" y2="511.93"/><line style="stroke:#181818;stroke-width:0.5;" x1="196.65" x2="280.5582" y1="519.93" y2="519.93"/></g><!--class IterMut<T>--><g id="elem_IterMut&lt;T&gt;"><rect fill="#F1F1F1" height="48" id="IterMut&lt;T&gt;" rx="2.5" ry="2.5" style="stroke:#181818;stroke-width:0.5;" width="111.8916" x="801.65" y="479.93"/><ellipse cx="816.65" cy="495.93" fill="#ADD1B2" rx="11" ry="11" style="stroke:#181818;stroke-width:1.0;"/><path d="M819.6231,501.5731 Q819.0421,501.8719 818.4029,502.0213 Q817.7638,502.1707 817.0582,502.1707 Q814.5514,502.1707 813.2315,500.5189 Q811.9117,498.867 811.9117,495.7459 Q811.9117,492.6165 813.2315,490.9647 Q814.5514,489.3128 817.0582,489.3128 Q817.7638,489.3128 818.4112,489.4622 Q819.0587,489.6116 819.6231,489.9105 L819.6231,492.6331 Q818.9923,492.0521 818.3988,491.7823 Q817.8053,491.5125 817.1744,491.5125 Q815.8297,491.5125 815.1449,492.5792 Q814.4601,493.6458 814.4601,495.7459 Q814.4601,497.8377 815.1449,498.9044 Q815.8297,499.971 817.1744,499.971 Q817.8053,499.971 818.3988,499.7012 Q818.9923,499.4315 819.6231,498.8504 Z " fill="#000000"/><text fill="#000000" font-family="sans-serif" font-size="14" lengthAdjust="spacing" textLength="79.8916" x="830.65" y="501.221">IterMut&lt;T&gt;</text><line style="stroke:#181818;stroke-width:0.5;" x1="802.65" x2="912.5416" y1="511.93" y2="511.93"/><line style="stroke:#181818;stroke-width:0.5;" x1="802.65" x2="912.5416" y1="519.93" y2="519.93"/></g><!--reverse link IntoIterator<&T> to &Vec<T>--><g id="link_IntoIterator&lt;&amp;T&gt;_&amp;Vec&lt;T&gt;"><path codeLine="31" d="M187.0773,120.9207 C200.0773,146.6107 207.37,161.02 217.75,181.54 " fill="none" id="IntoIterator&lt;&amp;T&gt;-backto-&amp;Vec&lt;T&gt;" style="stroke:#181818;stroke-width:1.0;stroke-dasharray:7.0,7.0;"/><polygon fill="none" points="178.95,104.86,181.7237,123.6298,192.4309,118.2117,178.95,104.86" style="stroke:#181818;stroke-width:1.0;"/></g><!--reverse link IntoIterator<&mut T> to &mut Vec<T>--><g id="link_IntoIterator&lt;&amp;mut T&gt;_&amp;mut Vec&lt;T&gt;"><path codeLine="32" d="M848.9,120.8321 C862.25,146.5221 869.78,161.02 880.44,181.54 " fill="none" id="IntoIterator&lt;&amp;mut T&gt;-backto-&amp;mut Vec&lt;T&gt;" style="stroke:#181818;stroke-width:1.0;stroke-dasharray:7.0,7.0;"/><polygon fill="none" points="840.6,104.86,843.576,123.5988,854.2241,118.0655,840.6,104.86" style="stroke:#181818;stroke-width:1.0;"/></g><!--link &Vec<T> to &[T]--><g id="link_&amp;Vec&lt;T&gt;_&amp;[T]"><path codeLine="34" d="M216.62,230.33 C206.79,251.16 196.43,282.3 205.6,308.44 C210.56,322.58 216.2892,331.4075 225.7892,341.9775 " fill="none" id="&amp;Vec&lt;T&gt;-to-&amp;[T]" style="stroke:#181818;stroke-width:1.0;stroke-dasharray:1.0,3.0;"/><polygon fill="#181818" points="229.8,346.44,226.7589,337.0724,226.4577,342.7213,220.8089,342.4201,229.8,346.44" style="stroke:#181818;stroke-width:1.0;"/><text fill="#000000" font-family="sans-serif" font-size="13" font-weight="bold" lengthAdjust="spacing" textLength="32.6587" x="246.4379" y="290.0084">iter()</text><text fill="#000000" font-family="sans-serif" font-size="13" lengthAdjust="spacing" textLength="112.3345" x="206.6" y="305.3189">via deref coercion</text></g><!--link &mut Vec<T> to &mut [T]--><g id="link_&amp;mut Vec&lt;T&gt;_&amp;mut [T]"><path codeLine="35" d="M873.75,230.13 C856.02,251.38 828.29,283.28 801.6,308.44 C787.43,321.8 775.3674,331.7438 761.0674,342.7338 " fill="none" id="&amp;mut Vec&lt;T&gt;-to-&amp;mut [T]" style="stroke:#181818;stroke-width:1.0;stroke-dasharray:1.0,3.0;"/><polygon fill="#181818" points="756.31,346.39,765.8835,344.0773,760.2745,343.3432,761.0086,337.7342,756.31,346.39" style="stroke:#181818;stroke-width:1.0;"/><text fill="#000000" font-family="sans-serif" font-size="13" font-weight="bold" lengthAdjust="spacing" textLength="65.5713" x="831.58" y="297.5084">iter_mut()</text><text fill="#000000" font-family="sans-serif" font-size="13" lengthAdjust="spacing" textLength="112.3345" x="901.2646" y="297.5084">via deref coercion</text></g><!--link &Vec<T> to Iter<T>--><g id="link_&amp;Vec&lt;T&gt;_Iter&lt;T&gt;"><path codeLine="36" d="M269.99,230.3 C294.04,245.16 321.11,263.89 327.6,276.44 C344.8,309.72 389.11,332.69 321.6,449.93 C312.64,465.49 302.3263,474.3066 287.0663,482.7066 " fill="none" id="&amp;Vec&lt;T&gt;-to-Iter&lt;T&gt;" style="stroke:#181818;stroke-width:1.0;stroke-dasharray:1.0,3.0;"/><polygon fill="#181818" points="281.81,485.6,291.6233,484.7641,286.1902,483.1889,287.7655,477.7558,281.81,485.6" style="stroke:#181818;stroke-width:1.0;"/><text fill="#000000" font-family="sans-serif" font-size="13" font-weight="bold" lengthAdjust="spacing" textLength="65.4951" x="358.83" y="375.7584">into_iter()</text></g><!--link &mut Vec<T> to IterMut<T>--><g id="link_&amp;mut Vec&lt;T&gt;_IterMut&lt;T&gt;"><path codeLine="37" d="M957.1,225.42 C982.09,236.07 1008.13,252.3 1022.6,276.44 C1034.95,297.05 1046.7,353.54 1017.6,402.93 C994.73,441.73 955.7744,465.3121 919.5144,481.0421 " fill="none" id="&amp;mut Vec&lt;T&gt;-to-IterMut&lt;T&gt;" style="stroke:#181818;stroke-width:1.0;stroke-dasharray:1.0,3.0;"/><polygon fill="#181818" points="914.01,483.43,923.8585,483.5178,918.597,481.4401,920.6747,476.1786,914.01,483.43" style="stroke:#181818;stroke-width:1.0;"/><text fill="#000000" font-family="sans-serif" font-size="13" font-weight="bold" lengthAdjust="spacing" textLength="65.4951" x="1036.64" y="375.7584">into_iter()</text></g><!--link &[T] to Iter<T>--><g id="link_&amp;[T]_Iter&lt;T&gt;"><path codeLine="38" d="M225.44,395.17 C214.88,405.5 204.18,418.56 198.6,432.93 C192.27,449.24 197.7661,461.7452 209.0261,474.9452 " fill="none" id="&amp;[T]-to-Iter&lt;T&gt;" style="stroke:#181818;stroke-width:1.0;stroke-dasharray:1.0,3.0;"/><polygon fill="#181818" points="212.92,479.51,210.1223,470.0669,209.6751,475.706,204.0359,475.2587,212.92,479.51" style="stroke:#181818;stroke-width:1.0;"/><text fill="#000000" font-family="sans-serif" font-size="13" font-weight="bold" lengthAdjust="spacing" textLength="32.6587" x="199.6" y="446.4984">iter()</text></g><!--link &[T] to Iter<T>--><g id="link_&amp;[T]_Iter&lt;T&gt;"><path codeLine="39" d="M251.74,395.15 C248.83,419.04 245.0651,449.894 242.1651,473.714 " fill="none" id="&amp;[T]-to-Iter&lt;T&gt;-1" style="stroke:#181818;stroke-width:1.0;stroke-dasharray:1.0,3.0;"/><polygon fill="#181818" points="241.44,479.67,246.4984,471.2194,242.0443,474.7066,238.557,470.2526,241.44,479.67" style="stroke:#181818;stroke-width:1.0;"/><text fill="#000000" font-family="sans-serif" font-size="13" font-weight="bold" lengthAdjust="spacing" textLength="65.4951" x="248.08" y="446.4984">into_iter()</text></g><!--link &mut [T] to IterMut<T>--><g id="link_&amp;mut [T]_IterMut&lt;T&gt;"><path codeLine="40" d="M708.26,395.07 C698.88,411.65 691.03,433.74 702.6,449.93 C724.93,481.16 760.8802,493.2751 795.4902,498.6151 " fill="none" id="&amp;mut [T]-to-IterMut&lt;T&gt;" style="stroke:#181818;stroke-width:1.0;stroke-dasharray:1.0,3.0;"/><polygon fill="#181818" points="801.42,499.53,793.1352,494.2044,796.4785,498.7676,791.9153,502.1108,801.42,499.53" style="stroke:#181818;stroke-width:1.0;"/><text fill="#000000" font-family="sans-serif" font-size="13" font-weight="bold" lengthAdjust="spacing" textLength="65.5713" x="703.6" y="446.4984">iter_mut()</text></g><!--link &mut [T] to IterMut<T>--><g id="link_&amp;mut [T]_IterMut&lt;T&gt;"><path codeLine="41" d="M748.38,395.15 C772.59,419.04 805.6191,451.6358 829.7591,475.4558 " fill="none" id="&amp;mut [T]-to-IterMut&lt;T&gt;-1" style="stroke:#181818;stroke-width:1.0;stroke-dasharray:1.0,3.0;"/><polygon fill="#181818" points="834.03,479.67,830.4332,470.5014,830.471,476.1581,824.8142,476.1959,834.03,479.67" style="stroke:#181818;stroke-width:1.0;"/><text fill="#000000" font-family="sans-serif" font-size="13" font-weight="bold" lengthAdjust="spacing" textLength="65.4951" x="804.01" y="446.4984">into_iter()</text></g><!--reverse link  [T] to &[T]--><g id="link_ [T]_&amp;[T]"><path codeLine="43" d="M437.9539,256.2322 C384.2739,289.4522 325.49,325.82 284.65,351.09 " fill="none" id=" [T]-backto-&amp;[T]" style="stroke:#181818;stroke-width:1.0;"/><polygon fill="none" points="453.26,246.76,434.7965,251.1302,441.1113,261.3343,453.26,246.76" style="stroke:#181818;stroke-width:1.0;"/></g><!--reverse link  [T] to &mut [T]--><g id="link_ [T]_&amp;mut [T]"><path codeLine="44" d="M582.391,257.8842 C622.131,289.1242 661.92,320.41 694.94,346.37 " fill="none" id=" [T]-backto-&amp;mut [T]" style="stroke:#181818;stroke-width:1.0;"/><polygon fill="none" points="568.24,246.76,578.6829,262.6013,586.0991,253.1672,568.24,246.76" style="stroke:#181818;stroke-width:1.0;"/></g><!--reverse link IntoIterator<&T> to &[T]--><g id="link_IntoIterator&lt;&amp;T&gt;_&amp;[T]"><path codeLine="46" d="M151.0779,122.6718 C149.9079,161.5018 151.61,199.31 163.6,246.44 C171.14,276.11 175.89,283.47 193.6,308.44 C203.32,322.15 216.22,335.59 227.64,346.36 " fill="none" id="IntoIterator&lt;&amp;T&gt;-backto-&amp;[T]" style="stroke:#181818;stroke-width:1.0;stroke-dasharray:7.0,7.0;"/><polygon fill="none" points="151.62,104.68,145.0806,122.4911,157.0752,122.8525,151.62,104.68" style="stroke:#181818;stroke-width:1.0;"/></g><!--reverse link IntoIterator<&mut T> to &mut [T]--><g id="link_IntoIterator&lt;&amp;mut T&gt;_&amp;mut [T]"><path codeLine="47" d="M796.5548,122.2343 C776.7148,190.4743 746.23,295.31 731.4,346.31 " fill="none" id="IntoIterator&lt;&amp;mut T&gt;-backto-&amp;mut [T]" style="stroke:#181818;stroke-width:1.0;stroke-dasharray:7.0,7.0;"/><polygon fill="none" points="801.58,104.95,790.7934,120.5592,802.3162,123.9094,801.58,104.95" style="stroke:#181818;stroke-width:1.0;"/></g><!--reverse link Iterator<Item=&T> to Iter<T>--><g id="link_Iterator&lt;Item=&amp;T&gt;_Iter&lt;T&gt;"><path codeLine="49" d="M151.6944,415.8615 C175.1544,439.3715 194.01,458.26 215.27,479.56 " fill="none" id="Iterator&lt;Item=&amp;T&gt;-backto-Iter&lt;T&gt;" style="stroke:#181818;stroke-width:1.0;stroke-dasharray:7.0,7.0;"/><polygon fill="none" points="138.98,403.12,147.4472,420.0996,155.9415,411.6233,138.98,403.12" style="stroke:#181818;stroke-width:1.0;"/></g><!--reverse link Iterator<Item=&mut T> to IterMut<T>--><g id="link_Iterator&lt;Item=&amp;mut T&gt;_IterMut&lt;T&gt;"><path codeLine="50" d="M890.1391,420.6014 C886.2991,434.9914 885.99,434.77 880.6,449.93 C877.1,459.76 872.65,470.35 868.6,479.46 " fill="none" id="Iterator&lt;Item=&amp;mut T&gt;-backto-IterMut&lt;T&gt;" style="stroke:#181818;stroke-width:1.0;stroke-dasharray:7.0,7.0;"/><polygon fill="none" points="894.78,403.21,884.3419,419.0544,895.9362,422.1484,894.78,403.21" style="stroke:#181818;stroke-width:1.0;"/></g><!--SRC=[jPInReCm48PtFyM9WH2rq1qHzWxTK9SqGWwO2Wcm1BIfbF3kzO4DCJ4q6JfXd-__xh-p1IqAVehB_2UlFWd9gvRL6KqOMAzYHLjU1s9HxkmejE1C09u0zx03UqCX8jsQflngmQZh3-RQgkMZVYntKr26PB88uoVOq6THIHu6nr1mUPpZoSinT1fMP5jmm-jSE6FKmnndswrwkMx3sCW_U8e5MVfA2jeqOC4-EamUaATGjiv2Jh_o_OgTPA5Ero5-q687clvDd8m8iT4fanyR_OmRnFG1OhZ8uE9v8kUT9O9iaONnoYpSgamoYi3TfxnjMNeGDeVQuAjkd2tsyb5zvnHILhCC4ixg9ESLqNWpYF8yWOQf8moCB2D73brXr2qFd3K3qxGNjRszjMeF9HkjcLMwBsqq3-Xc1ObynC75TTK3qaFtFAD1zkSRKfZRtzYGf6P3blvQKvfiwXS0]--></g></svg>